<svg width="1750" height="358" viewBox="0 0 1750 358" fill="none" xmlns="http://www.w3.org/2000/svg">
<g clip-path="url(#clip0)">
<path d="M226.961 235.591C226.961 243.211 225.971 250.089 223.992 256.224C222.112 262.261 219.589 267.604 216.422 272.255C213.255 276.906 209.544 280.865 205.289 284.13C201.034 287.396 196.63 290.068 192.078 292.146C187.526 294.224 182.875 295.758 178.125 296.748C173.474 297.737 169.07 298.232 164.914 298.232H16.0312V259.638H164.914C172.336 259.638 178.076 257.461 182.133 253.107C186.289 248.753 188.367 242.914 188.367 235.591C188.367 232.029 187.823 228.763 186.734 225.794C185.646 222.826 184.062 220.253 181.984 218.076C180.005 215.899 177.531 214.216 174.562 213.029C171.693 211.841 168.477 211.248 164.914 211.248H76.1484C69.9141 211.248 63.1849 210.159 55.9609 207.982C48.737 205.706 42.0078 202.094 35.7734 197.146C29.638 192.198 24.4922 185.716 20.3359 177.701C16.2786 169.685 14.25 159.888 14.25 148.31C14.25 136.732 16.2786 126.985 20.3359 119.068C24.4922 111.052 29.638 104.57 35.7734 99.6226C42.0078 94.5757 48.737 90.9637 55.9609 88.7866C63.1849 86.5106 69.9141 85.3726 76.1484 85.3726H207.516V123.966H76.1484C68.8255 123.966 63.0859 126.193 58.9297 130.646C54.8724 135.099 52.8438 140.987 52.8438 148.31C52.8438 155.732 54.8724 161.62 58.9297 165.974C63.0859 170.229 68.8255 172.357 76.1484 172.357H164.914H165.211C169.367 172.456 173.771 173.05 178.422 174.138C183.073 175.128 187.674 176.711 192.227 178.888C196.878 181.065 201.281 183.836 205.438 187.201C209.594 190.466 213.255 194.425 216.422 199.076C219.688 203.727 222.26 209.07 224.141 215.107C226.021 221.143 226.961 227.972 226.961 235.591ZM393.805 176.365H326.414V298.232H287.375V176.365H237.203V137.771H287.375V85.3726H326.414V137.771H393.805V176.365ZM591.227 190.912C591.227 196.255 590.286 202.044 588.406 208.279C586.526 214.414 583.458 220.154 579.203 225.498C575.047 230.742 569.555 235.146 562.727 238.708C555.997 242.271 547.784 244.052 538.086 244.052H468.469V207.388H538.086C543.331 207.388 547.388 205.805 550.258 202.638C553.128 199.373 554.562 195.365 554.562 190.615C554.562 185.568 552.93 181.61 549.664 178.74C546.497 175.87 542.638 174.435 538.086 174.435H468.469C463.224 174.435 459.167 176.068 456.297 179.333C453.427 182.5 451.992 186.458 451.992 191.208V245.091C451.992 250.237 453.576 254.245 456.742 257.115C460.008 259.985 464.016 261.419 468.766 261.419H538.086V298.232H468.469C463.125 298.232 457.336 297.292 451.102 295.412C444.966 293.531 439.227 290.513 433.883 286.357C428.638 282.102 424.234 276.61 420.672 269.88C417.109 263.052 415.328 254.789 415.328 245.091V190.912C415.328 185.568 416.268 179.828 418.148 173.693C420.029 167.458 423.047 161.719 427.203 156.474C431.458 151.13 436.951 146.677 443.68 143.115C450.508 139.552 458.771 137.771 468.469 137.771H538.086C543.43 137.771 549.169 138.711 555.305 140.591C561.539 142.472 567.279 145.539 572.523 149.794C577.867 153.951 582.32 159.443 585.883 166.271C589.445 173 591.227 181.214 591.227 190.912ZM760.445 298.232H721.852V191.802C721.852 186.755 720.516 182.945 717.844 180.373C715.172 177.701 711.214 176.365 705.969 176.365H655.797V298.232H617.203V156.919C617.203 154.248 617.698 151.774 618.688 149.498C619.677 147.123 621.062 145.094 622.844 143.412C624.625 141.63 626.703 140.245 629.078 139.255C631.453 138.266 633.977 137.771 636.648 137.771H706.266C711.609 137.771 717.349 138.711 723.484 140.591C729.62 142.472 735.458 145.49 741 149.646V137.771H793.25C796.911 137.771 800.771 138.216 804.828 139.107C808.885 139.899 812.893 141.185 816.852 142.966C820.909 144.748 824.768 147.073 828.43 149.943C832.091 152.714 835.307 156.128 838.078 160.185C840.849 164.143 843.076 168.745 844.758 173.99C846.44 179.235 847.281 185.172 847.281 191.802V298.232H808.688V191.802C808.688 186.755 807.401 182.945 804.828 180.373C802.354 177.701 798.495 176.365 793.25 176.365H758.516C759.802 181.115 760.445 186.261 760.445 191.802V298.232ZM1077.8 298.232H938.57C935.008 298.232 931.148 297.836 926.992 297.044C922.935 296.154 918.878 294.818 914.82 293.037C910.862 291.255 907.052 288.979 903.391 286.208C899.729 283.339 896.464 279.925 893.594 275.966C890.823 271.909 888.596 267.258 886.914 262.013C885.232 256.669 884.391 250.682 884.391 244.052V139.552C884.391 135.99 884.786 132.18 885.578 128.123C886.469 123.966 887.805 119.909 889.586 115.951C891.367 111.893 893.693 108.034 896.562 104.373C899.432 100.711 902.846 97.495 906.805 94.7241C910.862 91.8543 915.513 89.5783 920.758 87.896C926.003 86.2137 931.94 85.3726 938.57 85.3726H1077.8V123.966H938.57C933.523 123.966 929.664 125.302 926.992 127.974C924.32 130.646 922.984 134.604 922.984 139.849V244.052C922.984 249 924.32 252.86 926.992 255.63C929.763 258.302 933.622 259.638 938.57 259.638H1077.8V298.232ZM1180.52 298.232H1163.3C1157.76 298.232 1151.83 297.292 1145.49 295.412C1139.26 293.531 1133.42 290.464 1127.98 286.208C1122.53 281.854 1118.03 276.263 1114.47 269.435C1110.91 262.508 1109.12 254.047 1109.12 244.052V69.9351H1147.72V244.052C1147.72 248.802 1149.2 252.612 1152.17 255.482C1155.14 258.253 1158.85 259.638 1163.3 259.638H1180.52V298.232ZM1370.97 245.091C1370.97 250.435 1370.03 256.224 1368.15 262.458C1366.27 268.594 1363.2 274.333 1358.95 279.677C1354.79 284.922 1349.3 289.326 1342.47 292.888C1335.74 296.451 1327.53 298.232 1317.83 298.232H1248.21C1242.87 298.232 1237.08 297.292 1230.84 295.412C1224.71 293.531 1218.97 290.513 1213.62 286.357C1208.38 282.102 1203.98 276.61 1200.41 269.88C1196.85 263.052 1195.07 254.789 1195.07 245.091C1195.07 239.748 1196.01 233.958 1197.89 227.724C1199.77 221.49 1202.79 215.75 1206.95 210.505C1211.2 205.162 1216.69 200.708 1223.42 197.146C1230.25 193.583 1238.51 191.802 1248.21 191.802H1317.83V228.615H1248.21C1242.97 228.615 1238.91 230.248 1236.04 233.513C1233.17 236.68 1231.73 240.638 1231.73 245.388C1231.73 250.435 1233.37 254.393 1236.63 257.263C1240 260.034 1243.96 261.419 1248.51 261.419H1317.83C1323.07 261.419 1327.13 259.836 1330 256.669C1332.87 253.503 1334.3 249.544 1334.3 244.794V190.912C1334.3 185.865 1332.72 181.857 1329.55 178.888C1326.49 175.919 1322.58 174.435 1317.83 174.435H1233.07V137.771H1317.83C1323.17 137.771 1328.91 138.711 1335.05 140.591C1341.28 142.472 1347.02 145.539 1352.27 149.794C1357.61 153.951 1362.06 159.443 1365.62 166.271C1369.19 173 1370.97 181.214 1370.97 190.912V245.091ZM1559.04 244.052C1559.04 250.682 1558.2 256.669 1556.52 262.013C1554.83 267.258 1552.61 271.909 1549.84 275.966C1547.07 279.925 1543.85 283.339 1540.19 286.208C1536.53 288.979 1532.67 291.255 1528.61 293.037C1524.65 294.818 1520.59 296.154 1516.44 297.044C1512.38 297.836 1508.52 298.232 1504.86 298.232H1400.36V259.638H1504.56C1509.81 259.638 1513.77 258.302 1516.44 255.63C1519.11 252.958 1520.45 249.099 1520.45 244.052C1519.95 233.761 1514.76 228.615 1504.86 228.615H1445.04C1436.53 228.615 1429.3 227.13 1423.37 224.162C1417.43 221.193 1412.58 217.482 1408.82 213.029C1405.16 208.576 1402.49 203.776 1400.8 198.63C1399.22 193.485 1398.43 188.685 1398.43 184.232C1398.43 175.623 1399.96 168.399 1403.03 162.56C1406.1 156.623 1409.96 151.823 1414.61 148.162C1419.26 144.5 1424.31 141.878 1429.75 140.294C1435.19 138.612 1440.29 137.771 1445.04 137.771H1539.89V176.365H1445.34C1443.36 176.365 1441.77 176.612 1440.59 177.107C1439.5 177.503 1438.66 178.097 1438.06 178.888C1437.57 179.581 1437.27 180.373 1437.17 181.263C1437.07 182.055 1437.02 182.847 1437.02 183.638C1437.12 185.222 1437.42 186.458 1437.91 187.349C1438.41 188.24 1439 188.883 1439.7 189.279C1440.49 189.675 1441.33 189.922 1442.22 190.021C1443.21 190.021 1444.15 190.021 1445.04 190.021H1504.86C1514.76 190.021 1523.17 191.802 1530.09 195.365C1537.02 198.927 1542.61 203.43 1546.87 208.873C1551.12 214.216 1554.19 220.055 1556.07 226.388C1558.05 232.722 1559.04 238.61 1559.04 244.052ZM1741.32 244.052C1741.32 250.682 1740.48 256.669 1738.8 262.013C1737.11 267.258 1734.89 271.909 1732.12 275.966C1729.35 279.925 1726.13 283.339 1722.47 286.208C1718.81 288.979 1714.95 291.255 1710.89 293.037C1706.93 294.818 1702.88 296.154 1698.72 297.044C1694.66 297.836 1690.8 298.232 1687.14 298.232H1582.64V259.638H1686.84C1692.09 259.638 1696.05 258.302 1698.72 255.63C1701.39 252.958 1702.73 249.099 1702.73 244.052C1702.23 233.761 1697.04 228.615 1687.14 228.615H1627.32C1618.81 228.615 1611.59 227.13 1605.65 224.162C1599.71 221.193 1594.86 217.482 1591.1 213.029C1587.44 208.576 1584.77 203.776 1583.09 198.63C1581.5 193.485 1580.71 188.685 1580.71 184.232C1580.71 175.623 1582.24 168.399 1585.31 162.56C1588.38 156.623 1592.24 151.823 1596.89 148.162C1601.54 144.5 1606.59 141.878 1612.03 140.294C1617.47 138.612 1622.57 137.771 1627.32 137.771H1722.17V176.365H1627.62C1625.64 176.365 1624.05 176.612 1622.87 177.107C1621.78 177.503 1620.94 178.097 1620.34 178.888C1619.85 179.581 1619.55 180.373 1619.45 181.263C1619.35 182.055 1619.3 182.847 1619.3 183.638C1619.4 185.222 1619.7 186.458 1620.2 187.349C1620.69 188.24 1621.28 188.883 1621.98 189.279C1622.77 189.675 1623.61 189.922 1624.5 190.021C1625.49 190.021 1626.43 190.021 1627.32 190.021H1687.14C1697.04 190.021 1705.45 191.802 1712.38 195.365C1719.3 198.927 1724.89 203.43 1729.15 208.873C1733.4 214.216 1736.47 220.055 1738.35 226.388C1740.33 232.722 1741.32 238.61 1741.32 244.052Z" fill="#3341C6"/>
</g>
<defs>
<clipPath id="clip0">
<rect width="1750" height="358" fill="white"/>
</clipPath>
</defs>
</svg>
